Coordinates
version=1
nRows=26
nColumns=24
inDegrees=yes

Units are S.I. units (second, meters, Newtons, ...)
Angles are in degrees.

endheader
time	pelvis_tilt	pelvis_list	pelvis_rotation	pelvis_tx	pelvis_ty	pelvis_tz	hip_flexion_r	hip_adduction_r	hip_rotation_r	knee_angle_r	ankle_angle_r	subtalar_angle_r	mtp_angle_r	hip_flexion_l	hip_adduction_l	hip_rotation_l	knee_angle_l	ankle_angle_l	subtalar_angle_l	mtp_angle_l	lumbar_extension	lumbar_bending	lumbar_rotation
      1.00450000	     -3.05227625	      0.95372626	     -3.09168074	      0.06146379	      1.02983855	      0.29275683	    -16.92829270	     -0.02646833	     -0.90309888	     -9.85718637	     17.95830383	      4.47609110	     10.04609788	     29.47183376	     -1.06626455	     -2.39301852	     -3.99400238	      7.83649142	      5.40681699	      7.01116949	    -12.26672948	      0.32389234	      3.95249514
      1.00866667	     -3.03782192	      1.02991865	     -3.24875231	      0.06797374	      1.02917535	      0.29255674	    -17.05782624	     -0.21721679	     -0.85189883	    -10.35212940	     17.73273787	      4.56152409	     10.08350632	     29.48695792	     -0.99125889	     -2.34772513	     -4.63476086	      7.51820469	      5.25312980	      7.01565432	    -12.22111232	      0.12500631	      3.95843615
      1.01283333	     -3.03014956	      1.12699386	     -3.38567544	      0.07449073	      1.02852974	      0.29229615	    -17.14678968	     -0.43433349	     -0.91055227	    -10.91769535	     17.59313619	      4.85502768	     10.28894656	     29.49309099	     -0.87695096	     -2.16922965	     -5.25442674	      7.08323080	      4.86821172	      7.05989176	    -12.19099510	     -0.11860347	      4.04780484
      1.01700000	     -3.04549780	      1.22243966	     -3.52288564	      0.08104171	      1.02791981	      0.29203291	    -17.19927300	     -0.64625219	     -0.92701302	    -11.50095467	     17.34993688	      5.02202644	     10.65849703	     29.53061413	     -0.76827617	     -2.03332758	     -5.90627557	      6.62074434	      4.52251632	      7.13915450	    -12.11504520	     -0.34667017	      4.06225660
      1.02116667	     -2.99896515	      1.33280295	     -3.65445034	      0.08759975	      1.02747878	      0.29179097	    -17.32624613	     -0.87171005	     -0.90133463	    -12.04962279	     16.97253473	      5.06972088	     13.08331551	     29.50553402	     -0.64429457	     -1.94607475	     -6.57423809	      6.10460899	      4.18655195	      7.66528841	    -12.11969824	     -0.59270609	      3.99099478
      1.02533333	     -3.03856487	      1.43667508	     -3.76814358	      0.09420471	      1.02694187	      0.29150091	    -17.33027525	     -1.08239909	     -0.90203875	    -12.67039347	     16.62080701	      5.15515024	     13.12523333	     29.61093697	     -0.53344067	     -1.95485560	     -7.33371636	      5.64278648	      4.07602438	      7.66276272	    -12.00321539	     -0.84256067	      4.01932428
      1.02950000	     -3.05597047	      1.55139456	     -3.87340889	      0.10078182	      1.02648302	      0.29115858	    -17.31967102	     -1.31353611	     -0.97783112	    -13.36529992	     16.33008536	      5.35726980	     13.29348718	     29.69406084	     -0.40061434	     -1.90225770	     -8.10200706	      5.14144876	      3.76716139	      7.67154908	    -11.91449055	     -1.09355589	      4.05768483
      1.03366667	     -3.05719459	      1.65976376	     -3.95746145	      0.10734525	      1.02613062	      0.29076285	    -17.31339485	     -1.53589285	     -1.06347972	    -14.07294793	     15.90465828	      5.55893126	     13.83706898	     29.75481770	     -0.25958827	     -1.77936525	     -8.85971408	      4.60191597	      3.37621082	      7.70871881	    -11.86177305	     -1.32508707	      4.03397367
      1.03783333	     -3.05905685	      1.79111564	     -4.05746862	      0.11395049	      1.02585255	      0.29045108	    -17.29115882	     -1.77566459	     -1.05996320	    -14.80432999	     15.43700778	      5.56385964	     13.95056265	     29.83650867	     -0.12462173	     -1.83840125	     -9.67540406	      4.13665951	      3.26018249	      7.70699856	    -11.79555669	     -1.61623702	      3.98818587
      1.04200000	     -3.07756960	      1.90728473	     -4.12443751	      0.12051447	      1.02559255	      0.29001320	    -17.21438435	     -2.00227138	     -1.14067406	    -15.59721858	     14.90710781	      5.62480623	     17.51559269	     29.94195608	      0.02262324	     -1.76645992	    -10.50098416	      3.63513808	      2.90583951	      7.82695774	    -11.71396345	     -1.84592245	      3.93892385
      1.04616667	     -3.09644944	      2.03752676	     -4.18433061	      0.12710133	      1.02538733	      0.28958062	    -17.10985575	     -2.24261319	     -1.23098345	    -16.44916120	     14.41521979	      5.75292014	     17.57785306	     30.07150109	      0.17243325	     -1.80483155	    -11.38780188	      3.24494808	      2.76436214	      7.81510949	    -11.63140901	     -2.12473542	      3.90120079
      1.05033333	     -3.11882216	      2.16459280	     -4.23340651	      0.13367752	      1.02524486	      0.28910570	    -16.97222628	     -2.47987936	     -1.32586644	    -17.34899381	     13.87732773	      5.88128349	     17.72750678	     30.20112655	      0.32647534	     -1.80177450	    -12.27226213	      2.85910322	      2.55569799	      7.79419986	    -11.54559885	     -2.38269529	      3.84459136
      1.05450000	     -3.10585093	      2.29640811	     -4.27035533	      0.14024853	      1.02523116	      0.28863684	    -16.86045722	     -2.71716630	     -1.39744044	    -18.25798782	     13.23415577	      5.95485819	     17.83519652	     30.29066741	      0.48810854	     -1.80941286	    -13.15724278	      2.51721307	      2.40950940	      7.77552264	    -11.51043454	     -2.66194033	      3.78221659
      1.05866667	     -3.12071518	      2.41786629	     -4.28873929	      0.14677785	      1.02521397	      0.28806272	    -16.66796245	     -2.95078320	     -1.52540325	    -19.25771267	     12.57968336	      6.02992788	     21.07223912	     30.41189220	      0.65663641	     -1.75306679	    -14.04662167	      2.18980211	      2.14200409	      7.36392591	    -11.44429961	     -2.89197592	      3.69243193
      1.06283333	     -3.11935099	      2.55025961	     -4.29694803	      0.15332539	      1.02526961	      0.28749870	    -16.46933553	     -3.19319060	     -1.65125970	    -20.30484988	     11.93768698	      6.14116428	     21.12593239	     30.51983233	      0.83042413	     -1.76546335	    -14.95317401	      1.96207676	      2.04836961	      7.34736639	    -11.39333701	     -3.15688085	      3.61446709
      1.06700000	     -3.11408817	      2.67880192	     -4.29242948	      0.15984962	      1.02538892	      0.28689955	    -16.24384252	     -3.43169042	     -1.77852462	    -21.40097918	     11.25250256	      6.24701967	     21.23786394	     30.60980323	      1.01105885	     -1.74092085	    -15.83223353	      1.74550501	      1.91988592	      7.31700476	    -11.35037419	     -3.41032444	      3.52124558
      1.07116667	     -3.11285347	      2.80554335	     -4.27218208	      0.16636108	      1.02554973	      0.28626264	    -15.98567635	     -3.66678493	     -1.90808786	    -22.54260104	     10.54316032	      6.35944813	     21.45318986	     30.69591110	      1.19990329	     -1.69854724	    -16.69873553	      1.56172801	      1.77214089	      7.26027159	    -11.30724410	     -3.65955280	      3.40930213
      1.07533333	     -3.06247897	      2.92940434	     -4.24531294	      0.17284460	      1.02586170	      0.28562726	    -15.76006657	     -3.89716510	     -2.01246190	    -23.70390028	      9.72823303	      6.39993625	     21.54753518	     30.70423450	      1.39328934	     -1.65216687	    -17.51332269	      1.42629602	      1.69073364	      7.23187762	    -11.33489679	     -3.92243576	      3.32974791
      1.07950000	     -3.01897482	      3.07425566	     -4.20245109	      0.17930108	      1.02618524	      0.28492018	    -15.48017973	     -4.15985571	     -2.17775208	    -24.94815963	      8.93734694	      6.45100219	     24.30868535	     30.69502431	      1.63004029	     -1.54141873	    -18.27330693	      1.27837920	      1.45007300	      6.45129001	    -11.34305701	     -4.17440426	      3.10715177
      1.08366667	     -3.00545826	      3.17068304	     -4.14347990	      0.18572317	      1.02649590	      0.28418983	    -15.14634608	     -4.36069080	     -2.30158754	    -26.22505261	      8.11784315	      6.52294103	     24.34939695	     30.72832121	      1.81163379	     -1.48534109	    -19.06175893	      1.22059276	      1.43427496	      6.42973506	    -11.32890526	     -4.37578814	      3.06952314
      1.08783333	     -2.97363445	      3.28827834	     -4.08057929	      0.19212545	      1.02688524	      0.28345320	    -14.79869054	     -4.58697051	     -2.43161609	    -27.55281905	      7.28816453	      6.56749409	     24.41903099	     30.70430916	      2.02687145	     -1.39618877	    -19.76882900	      1.15034734	      1.33243309	      6.39024487	    -11.33298094	     -4.60176752	      2.94866369
      1.09200000	     -2.90176028	      3.39831165	     -4.01227369	      0.19847485	      1.02738994	      0.28271209	    -14.47170034	     -4.80473789	     -2.54298101	    -28.89997143	      6.40361827	      6.58424260	     24.45083572	     30.61284043	      2.24356480	     -1.29696104	    -20.42577211	      1.12527531	      1.25736882	      6.36666896	    -11.40063171	     -4.83168755	      2.85174229
      1.09616667	     -2.85407096	      3.50793499	     -3.92849427	      0.20478195	      1.02787618	      0.28190789	    -14.08114668	     -5.02543557	     -2.67937966	    -30.31013909	      5.55065337	      6.61016368	     24.62257928	     30.52268594	      2.48139368	     -1.13003549	    -21.02858198	      1.08549478	      1.04033182	      6.24084395	    -11.42939612	     -5.01550035	      2.65647078
      1.10033333	     -2.78532179	      3.61916341	     -3.84111416	      0.21104992	      1.02843550	      0.28113125	    -13.69112135	     -5.24310493	     -2.79895525	    -31.74068408	      4.66625466	      6.56172318	     24.69305104	     30.39187482	      2.71744397	     -1.00437975	    -21.59235236	      1.05905183	      0.93892683	      6.16461156	    -11.49347131	     -5.23904975	      2.53595315
      1.10450000	     -2.70239469	      3.72074897	     -3.76148647	      0.21727165	      1.02906762	      0.28036464	    -13.28850139	     -5.45375223	     -2.89727550	    -33.19360208	      3.74707021	      6.52331164	     24.70853737	     30.21928943	      2.94619014	     -0.86782917	    -22.10792752	      1.10625114	      0.84962601	      6.12543399	    -11.58338327	     -5.44740475	      2.43584107
      1.10866667	     -2.64146538	      3.82367599	     -3.67132874	      0.22344400	      1.02969208	      0.27956803	    -12.83271007	     -5.66218081	     -2.99852714	    -34.68420319	      2.85586309	      6.40397981	     24.72069478	     30.04827072	      3.19272921	     -0.68035563	    -22.57401380	      1.10291832	      0.63257388	      6.03786371	    -11.64018815	     -5.63209713	      2.27325687
